PathFileType	4	(X/Y/Z)	Walk5.trc
DataRate	CameraRate	NumFrames	NumMarkers	Units	OrigDataRate	OrigDataStartFrame	OrigNumFrames
200.000000	200.000000	6	59	mm	200.000000	409	531
Frame#	Times		RFHD		CLAV		RASI		RACR1		RUA1		RFA1		LUA1		LFA1		LWRR		LWRU		RTH1		LTH2		LCAR		LACR1		LFHD		RBack		RCAR		LTH4		LTH3		T10		LLFC		C7		RWRR		LASI		RWRU		RElbow		LTB2		LToe		LBHD		RBHD		LTH1		STRN		RTB1		LTB4		RTH4		RPSI		RTH2		RMT1		LMMAL		LTB1		LMT1		LCAL		LElbow		LTB3		LMT5		RTB2		RElbowM		RTH3		RLFC		LElbowM		RTB4		LLMAL		LPSI		RTB3		RCAL		RToe		RMMAL		RLMAL		RMT5
			X1	Y1	Z1	X2	Y2	Z2	X3	Y3	Z3	X4	Y4	Z4	X5	Y5	Z5	X6	Y6	Z6	X7	Y7	Z7	X8	Y8	Z8	X9	Y9	Z9	X10	Y10	Z10	X11	Y11	Z11	X12	Y12	Z12	X13	Y13	Z13	X14	Y14	Z14	X15	Y15	Z15	X16	Y16	Z16	X17	Y17	Z17	X18	Y18	Z18	X19	Y19	Z19	X20	Y20	Z20	X21	Y21	Z21	X22	Y22	Z22	X23	Y23	Z23	X24	Y24	Z24	X25	Y25	Z25	X26	Y26	Z26	X27	Y27	Z27	X28	Y28	Z28	X29	Y29	Z29	X30	Y30	Z30	X31	Y31	Z31	X32	Y32	Z32	X33	Y33	Z33	X34	Y34	Z34	X35	Y35	Z35	X36	Y36	Z36	X37	Y37	Z37	X38	Y38	Z38	X39	Y39	Z39	X40	Y40	Z40	X41	Y41	Z41	X42	Y42	Z42	X43	Y43	Z43	X44	Y44	Z44	X45	Y45	Z45	X46	Y46	Z46	X47	Y47	Z47	X48	Y48	Z48	X49	Y49	Z49	X50	Y50	Z50	X51	Y51	Z51	X52	Y52	Z52	X53	Y53	Z53	X54	Y54	Z54	X55	Y55	Z55	X56	Y56	Z56	X57	Y57	Z57	X58	Y58	Z58	X59	Y59	Z59

409	2.045	239.61	1431.9	66.264	221.22	1190.9	6.8027	221.97	831.95	158.73	159.31	1209.8	190.06	178.96	1068.1	265.43	256.46	835.03	305.89	151.22	1062.7	-254.3	197.8	863	-302.04	265.71	775.97	-281.08	216.21	749.77	-310.26	162.13	642.19	204.94	235.96	608.37	-178.54	268.71	720.12	-320.45	139.45	1224.1	-177.67	242.43	1443	-29.717	38.514	1147.4	129.24	303.89	687.32	329.57	189.08	585.2	-206.65	214.31	503.7	-186.17	-3.3864	1073.3	17.689	254.1	410.14	-158.47	81.531	1274.6	14.796	297.66	745.06	277.15	191.57	827.55	-168.15	247.06	729.21	325.04	182.6	941.49	296.45	149.79	255.51	-138.48	161.02	40.473	-83.345	117.36	1360.6	-52.542	114.39	1353.7	80.08	163.24	666.71	-220.15	273.88	1084.3	7.8745	205.57	288.56	74.273	173.5	243.29	-82.428	165.46	558.13	182.79	-41.682	847.42	62.269	222.11	568.64	165.05	239.94	30.11	11.26	70.63	145.24	-22.718	231.86	308.43	-93.279	126.32	53.883	-49.845	-2.8903	156.63	-46.197	118.45	943.5	-276.05	123.38	177.7	-74.471	75.691	66.944	-121.3	156.01	201.96	112.93	132.11	904.28	228.19	173.65	476.39	153.68	159.27	391.08	128.68	92.013	916.87	-209.27	189.29	203.81	61.553	33.729	147.13	-96.845	-53.434	845.42	-40.82	180.79	120.7	49.102	72.516	32.475	36.346	295	32.701	45.47	141.46	69.083	0.075113	129.18	58.882	81.976	214.36	22.861	105.01
410	2.05	244.99	1432.2	66.523	226.56	1191.3	6.9717	226.44	832.23	159.86	164.58	1210.2	190.29	184.63	1068.5	265.63	263.31	835.85	305.66	155.66	1063.2	-254.29	200.97	862.74	-302.23	268.19	774.97	-281.58	218.3	749.36	-310.67	166.51	642.11	205.1	242.17	609.55	-178.11	270.49	719.05	-320.98	144.45	1224.5	-177.38	247.73	1443.3	-29.459	43.841	1147.7	129.54	311.76	688.54	329.03	195.37	585.99	-206.09	221.19	504.72	-185.42	2.0187	1073.6	18.117	261.66	411.51	-157.49	86.82	1274.9	15.09	305	746.28	276.7	197.09	828.21	-167.87	254.57	729.93	324.61	188.85	941.96	296.75	161.06	254.45	-137.56	179.14	40.465	-82.759	122.63	1360.9	-52.217	119.78	1354	80.403	168.95	667.29	-219.66	279.18	1084.8	7.5661	206.83	288.18	74.467	185.18	242.81	-81.569	169	558.05	182.91	-36.375	847.87	62.682	225.74	568.07	165.11	239.99	30.079	11.262	85.127	141.89	-21.93	241.76	309.47	-92.384	143.98	52.816	-49.312	11.148	150.92	-45.239	122.6	943.94	-275.64	136.88	175.86	-73.612	92.689	63.992	-120.62	156.8	201.8	113	138.07	904.58	228.71	176.4	476.25	153.8	161.05	391.01	128.79	96.213	917.51	-208.81	190.11	203.54	61.651	48.067	142.74	-95.985	-48.168	846.22	-40.272	181.21	120.5	49.096	72.576	32.628	36.3	295.17	32.515	45.523	141.62	69.064	0.04307	129.29	58.915	81.942	214.35	22.851	105.03
411	2.055	250.33	1432.4	66.758	231.9	1191.6	7.1264	230.98	832.45	160.92	169.84	1210.6	190.49	190.21	1068.9	265.84	270.11	836.66	305.45	160.13	1063.7	-254.29	204.17	862.47	-302.47	270.69	773.95	-282.15	220.42	748.94	-311.16	170.92	642.03	205.26	248.34	610.62	-177.67	272.3	717.98	-321.59	149.47	1224.8	-177.11	253.01	1443.6	-29.226	49.169	1148	129.84	319.6	689.75	328.48	201.62	586.7	-205.54	227.98	505.64	-184.68	7.4189	1073.8	18.534	269.05	412.78	-156.48	92.11	1275.1	15.358	312.32	747.48	276.25	202.66	828.82	-167.56	262.05	730.62	324.15	195.04	942.4	297.06	172.33	253.3	-136.66	197.35	40.521	-82.33	127.9	1361.2	-51.924	125.14	1354.2	80.694	174.67	667.8	-219.18	284.49	1085.2	7.2438	208.05	287.82	74.645	196.87	242.27	-80.727	172.58	557.98	183.02	-31.043	848.29	63.123	229.38	567.49	165.16	240.04	30.048	11.27	99.837	138.44	-21.198	251.55	310.45	-91.483	161.79	51.766	-48.906	25.463	145.07	-44.298	126.8	944.34	-275.28	150.49	173.95	-72.785	109.85	61.051	-120.05	157.58	201.66	113.07	144.01	904.84	229.22	179.17	476.14	153.92	162.81	390.95	128.9	100.44	918.08	-208.42	190.91	203.28	61.74	62.607	138.23	-95.158	-42.92	846.95	-39.713	181.62	120.31	49.087	72.639	32.791	36.254	295.33	32.331	45.588	141.79	69.051	0.013191	129.39	58.949	81.908	214.33	22.838	105.05
412	2.06	255.65	1432.7	66.973	237.24	1191.9	7.268	235.59	832.61	161.9	175.1	1210.9	190.69	195.71	1069.2	266.07	276.86	837.43	305.26	164.64	1064	-254.3	207.42	862.18	-302.75	273.22	772.92	-282.8	222.57	748.51	-311.72	175.34	641.94	205.41	254.47	611.57	-177.22	274.14	716.91	-322.29	154.52	1225.1	-176.86	258.27	1443.9	-29.014	54.5	1148.3	130.12	327.4	690.94	327.91	207.83	587.33	-205.01	234.68	506.45	-183.94	12.814	1074	18.938	276.26	413.93	-155.43	97.404	1275.3	15.598	319.6	748.68	275.79	208.26	829.37	-167.23	269.49	731.29	323.67	201.16	942.81	297.37	183.59	252.09	-135.77	215.62	40.666	-82.073	133.16	1361.4	-51.664	130.49	1354.4	80.951	180.4	668.24	-218.71	289.79	1085.6	6.9155	209.25	287.46	74.807	208.56	241.68	-79.907	176.17	557.92	183.12	-25.691	848.66	63.582	233.04	566.91	165.22	240.09	30.018	11.286	114.75	134.93	-20.527	261.23	311.39	-90.585	179.74	50.757	-48.64	40.061	139.11	-43.376	131.03	944.68	-274.97	164.22	172.01	-72	127.16	58.155	-119.58	158.36	201.52	113.14	149.95	905.07	229.69	181.95	476.03	154.03	164.54	390.9	129.01	104.69	918.57	-208.1	191.7	203.02	61.818	77.346	133.65	-94.368	-37.687	847.61	-39.154	182.01	120.13	49.077	72.705	32.964	36.207	295.5	32.149	45.665	141.95	69.043	-0.01631	129.5	58.986	81.875	214.3	22.824	105.07
413	2.065	260.93	1432.9	67.168	242.59	1192.1	7.3977	240.28	832.72	162.79	180.35	1211.2	190.87	201.15	1069.6	266.31	283.57	838.17	305.08	169.19	1064.3	-254.31	210.71	861.86	-303.07	275.77	771.87	-283.52	224.77	748.08	-312.35	179.78	641.85	205.58	260.56	612.4	-176.75	276	715.85	-323.07	159.59	1225.3	-176.63	263.51	1444.1	-28.822	59.835	1148.5	130.4	335.16	692.1	327.32	214	587.86	-204.5	241.27	507.16	-183.19	18.206	1074.1	19.329	283.29	414.98	-154.35	102.7	1275.5	15.811	326.85	749.85	275.33	213.91	829.87	-166.89	276.88	731.92	323.18	207.22	943.17	297.68	194.84	250.84	-134.9	233.93	40.922	-81.998	138.42	1361.6	-51.434	135.82	1354.5	81.178	186.14	668.61	-218.26	295.1	1085.9	6.589	210.42	287.11	74.95	220.25	241.05	-79.118	179.78	557.86	183.22	-20.322	849	64.049	236.73	566.31	165.28	240.14	29.987	11.307	129.87	131.38	-19.923	270.8	312.28	-89.694	197.81	49.813	-48.518	54.94	133.07	-42.478	135.3	944.97	-274.71	178.06	170.05	-71.267	144.6	55.338	-119.23	159.13	201.38	113.22	155.87	905.26	230.14	184.74	475.94	154.13	166.27	390.84	129.11	108.97	918.97	-207.83	192.47	202.77	61.885	92.279	129.03	-93.623	-32.465	848.19	-38.607	182.39	119.96	49.067	72.771	33.148	36.155	295.67	31.97	45.753	142.12	69.042	-0.047982	129.61	59.024	81.841	214.28	22.81	105.1
414	2.07	266.19	1433	67.346	247.94	1192.3	7.5164	245.04	832.76	163.58	185.61	1211.5	191.03	206.53	1069.9	266.56	290.22	838.88	304.91	173.79	1064.5	-254.33	214.04	861.53	-303.43	278.37	770.81	-284.3	227	747.64	-313.05	184.23	641.75	205.74	266.61	613.12	-176.27	277.91	714.8	-323.93	164.69	1225.4	-176.42	268.73	1444.2	-28.649	65.176	1148.7	130.66	342.88	693.24	326.72	220.13	588.3	-204.01	247.77	507.76	-182.44	23.594	1074.2	19.707	290.13	415.91	-153.25	108.01	1275.6	15.998	334.06	751	274.86	219.59	830.3	-166.52	284.24	732.53	322.66	213.22	943.49	297.99	206.07	249.55	-134.05	252.26	41.315	-82.104	143.68	1361.7	-51.234	141.13	1354.6	81.373	191.9	668.91	-217.84	300.41	1086.2	6.2722	211.59	286.77	75.073	231.92	240.4	-78.366	183.4	557.81	183.32	-14.942	849.3	64.512	240.42	565.71	165.34	240.18	29.957	11.333	145.18	127.83	-19.388	280.24	313.13	-88.819	215.97	48.961	-48.542	70.099	127	-41.61	139.6	945.21	-274.48	191.98	168.1	-70.598	162.16	52.629	-118.99	159.91	201.26	113.29	161.8	905.41	230.57	187.55	475.86	154.23	167.99	390.78	129.21	113.29	919.29	-207.61	193.25	202.53	61.941	107.4	124.39	-92.927	-27.25	848.68	-38.084	182.77	119.79	49.055	72.835	33.342	36.098	295.84	31.795	45.85	142.3	69.05	-0.084897	129.72	59.066	81.806	214.25	22.798	105.13
